<?xml version="1.0" encoding="UTF-8" standalone="no"?>
<!-- Created with Inkscape (http://www.inkscape.org/) -->
<svg id="svg2" xmlns:rdf="http://www.w3.org/1999/02/22-rdf-syntax-ns#" xmlns="http://www.w3.org/2000/svg" xml:space="preserve" height="478.3331" viewBox="0 0 1071.6669 478.33313" width="1071.667" version="1.1" xmlns:cc="http://creativecommons.org/ns#" xmlns:dc="http://purl.org/dc/elements/1.1/"><metadata id="metadata8"><rdf:RDF><cc:Work rdf:about=""><dc:format>image/svg+xml</dc:format><dc:type rdf:resource="http://purl.org/dc/dcmitype/StillImage"/><dc:title/></cc:Work></rdf:RDF></metadata><g fill-rule="evenodd"><path id="path102" fill="#fcee00" d="m9.999975 132.5 43.33312 335.8331 1008.334-125-52.5-333.3331l-158.3339 19.16686-840.8331 103.3331z"/><path id="path104" fill="#fff" d="m20.8331 143.3331 40.83312 314.1675 985.0008-123.3337-46.6676-314.1669-979.1663 123.3331z"/><path id="path106" fill="#b3b3b3" d="m29.16685 147.5 38.33314 305.0006 974.999-122.5012-46.6659-302.4994-966.6662 120z"/><path id="path108" fill="#fff" d="m991.6668 31.66625-959.1668 120l40 297.5006 964.9994-122.5-45.83257-295.0006z"/><path id="path110" fill="#242799" d="m268.3331 203.7494-11.66688 15.41686-51.66686-37.5-93.75 32.08314s31.66748 128.335 32.08374 130.4175c0.41626 2.08253 0.83252 17.49879-2.08374 25.83253-2.91626 8.33373-14.16626 47.5-14.16626 47.5l-52.5-161.25 17.91626-55.83314 114.1669-42.08313 60.41688 43.75 1.25 1.66627z"/><path id="path112" fill="#d32648" d="m507.3956 185.5206 0.9375 35.9375-47.1875 14.375-0.9375 6.5625 57.1875 2.8125 9.6875 27.1875s-16.5625 36.25-17.8125 37.1875-3.75 1.25-3.75 1.25-74.0625 11.5625-77.8125 11.875-10.3125 0.9375-12.8125-5.9375-18.4375-63.75-18.4375-63.75l40.3125-20-20.9375-13.75 1.25-38.125 42.5-17.5s4.375 9.6875 5.9375 9.6875 7.5-4.6875 8.4375-4.6875 5.9375 2.8125 7.1875 3.4375 26.25 13.4375 26.25 13.4375z"/><path id="path114" fill="#d32648" d="m904.2706 112.0831 33.4375 15.9375 0.9375 35.3125s0 1.25-2.1875 2.1875-45 13.125-45 13.125v6.25l55 2.8125 10.9375 27.8125-17.5 36.875s-72.8125 14.375-78.125 14.6875-13.75 0.625-17.1875-9.375-19.0625-60.3125-19.0625-60.3125l40.9375-21.25-21.5625-12.1875 0.625-37.1875 43.125-20.3125s4.0625 10.9375 5.3125 10.9375 10.3125-5.3125 10.3125-5.3125z"/><g id="g14" fill="#242799" transform="matrix(1.25,0,0,-1.25,217.0831,-18.84514)"><path id="path116" d="m426.667-280.4096-28.33398-1s7.00097 25.33398 8.33398 28.66699 4.66602 5.00098 8.66602 5.66699c4 0.66602 20.33398 0.33301 20.33398 0.33301l-9-33.66699z"/><path id="path118" d="m-67.66699-352.4096s10 35.33398 11.33349 38.66699c1.3335 3.33301 5.66651 9.66602 14 11.33301 8.3335 1.66699 67.66651 11.66699 67.66651 11.66699l8.66699 94 17-0.3335 5.33301 16.667-11.33301 15 12.6665 37.6665 72 6-30.333-54 32.6665 2.3335 18.3335 27.33349 17.333 9.33301 7.3335 21.3335 67.6665-6.66651-20.333-18.33349 13-6 3.333 12.6665 81.66651 27.66699 54.33398-29.33349-5.66699-12.3335-48.33301 26-67.667-21.333s27.66699-102.334 28.3335-104.667c0.6665-2.33301-0.33399-9.66602-0.667-12.33301-0.333-2.66699-11.33349-39.33398-11.33349-39.33398l-17 37-22.333-50.333-79.66699-12s10 33.33301 10.33349 35.33301c0.3335 2 2.3335 9 14 11 11.66651 2 61.3335 9.33398 61.3335 9.33398l16.6665 35.66602-9.33349 25.66699-36.66651 1.3335 31.3335 9v36.333l-26.3335 12-14.33349-13-9.333 19.3335-34.3335-15.3335-0.6665-35.6665 12.6665-8-29.33349-15.33301s15.6665-51.00097 16-54.33398c0.33349-3.33301 2.00049-12-0.33301-23.33301s-7-25.33301-7-25.33301l-32 51-9-24-36-4.33398s10 34.66797 11.6665 39.33398c1.66651 4.66602 6.00049 8.99903 12.3335 9.66602s6.3335 0.66699 8 0.66699 4.3335 2 5 5 11 52 11 52l-44.66699-1.6665s6-40.66651 6-42.66651 1.66699-10.66601-0.33301-16c-2-5.33398-13.66699-42.66699-13.66699-42.66699l-16 47-4.33301-43.667-14.3335-43.333-96.33349-18.667m136.417 215.917 26.75-33 19.75 37-46.5-4m124.5 11.5 11.5-24 24.5 20.25-36 3.75z"/><path id="path120" d="m274.6665-301.7426s11 37.66699 12 39.66699 0.3335 6.66699 13 10c12.66651 3.33301 61.3335 13.66602 61.3335 13.66602l9 86.33398 15-3.33349v-8.3335l88 1.3335 1 32 20 29.33349 17.33301 7.999996 6.66699 22.33301 70-4.6665-21.66699-20 24.667-11.6665 1.66699-44.33349 3 0.33349 12.66602-35.33349-34.333-82.0005-78.33301-11s8.66699 31.66797 10 35.33398c1.33301 3.66602 2.66602 9.33203 12.33301 11.66602 9.66699 2.33398 64 10.99902 64 10.99902l15 32.00147-10 26.6665-37.66699 2 32.66699 10.3335-1.66699 34.6665-24.66602 11.66699-15.33398-13.66699-9.66602 20.3335-33.33398-16.3335v-35l12.66699-7.33301-29.66699-15s16.66797-55.66797 17.33398-58.33398c0.66602-2.66602 1.99903-8.66602 0.66602-17.33301s-8-30.33301-8-30.33301l-10 18-5.33301-20-42.66699-7 9 35.66602 3.33398 1.33398 24.33301 3.33301 0.33301 70.3335-21.33301-0.3335v-19.6665l-13-0.66651-3.33301 19-36.66699-1s-6.66602-41.66699-6.33301-42.66699 10.33203-16.33398 10.66602-17.66699c0.33398-1.33301 3.00097-7.66602 1.33398-13.33301s-8-27.66699-8-27.66699l-20 32.33398-8.66699-34-89.3335-20.66699m260.8335 221.25 11.5-23.49999 25.25 21-36.75 2.5z"/></g><g id="g19" fill="#f13e14" transform="matrix(1.25,0,0,-1.25,217.0831,-18.84514)"><path id="path122" d="m561-85.74261-12-11.5-6.25 12.75 18.25-1.25z"/><path id="path124" d="m219.75-131.4926-13.75-11.25-6 13 19.75-1.75z"/><path id="path126" d="m108.5-136.4926-13.25-25.5-19 23.25 32.25 2.25z"/></g><path id="path128" d="m315.2081 229.5831s5.9375 47.8125 6.25 48.75 0 5.9375 5.9375 5.9375 14.6875-0.625 14.6875-0.625l12.5-55.625-39.375 1.5625z" fill="#d32648"/><path id="path130" d="m347.7081 233.0206-26.875 1.25 4.6875 41.875 12.8125-1.5625 9.375-41.5625z" fill="#f13e14"/><g id="g26" fill="#d32648" transform="matrix(1.25,0,0,-1.25,217.0831,-18.84514)"><path id="path132" d="m30-196.7426-8.75-87.75s-63.25-11.5-66.25-12-7.75 1.5-9 7-23 101-23 101l66.5 22.75 40.5-31z"/><path id="path134" d="m364.75-150.9926-8.75-81s-52.5-12-54.5-12.75-12.5-2.75-16 6.75-24.75 89.5-24.75 89.5l1.25 3 58.75 18.75 44-24.25z"/><path id="path136" d="m427.75-180.7426-28-0.75-5-36.5s9-18.25 10.75-19.5 3.25-3.5 8.75-3.5 26.5 1 26.5 1 1-3 1.75-3.25 22.75 3 22.75 3l-0.25 60.75-11.25-0.5-0.25-19.5-22.25-0.25-3.5 19z"/></g><g id="g31" fill="#f13e14" transform="matrix(1.25,0,0,-1.25,217.0831,-18.84514)"><path id="path138" d="m20.75-245.4926-79.25-9.25-14.25 63.5 61 20.5 36.25-27.5-3.75-47.25z"/><path id="path140" d="m236.75-217.7426-85.5-9.75-2.25 7.5 31.25 17v3l-16.75 12.5 0.75 24 27.5 13 7.5-5.5 6 1.25 22.5-11 0.5-23.25-37.75-11.75-0.5-12.5 45.75-1.25 1-3.25z"/><path id="path142" d="m355-201.7426-72.75-9.75-16.75 60.25s-0.25 2.75 2.5 4.25 51.25 16 51.25 16l41.5-22-5.75-48.75z"/><path id="path144" d="m463-186.9926-5-0.5v3.75l4.5 0.5 0.5-3.75z"/><path id="path146" d="m425.5-192.9926-24.75-3 2 10 21.5 1 1.25-8z"/><path id="path148" d="m537.666-102.0761-32.41602-16.4165-0.5-25.75 16.75-10 0.25-4-30.25-14.5 2.75-10 87.75 9-2.25 4-40.75 1.5s-2.75 0-2.75 3 0.75 9.5 0.75 9.5-1.75 1 2.25 2.5 32.75 9.75 32.75 9.75v22l-25.33398 14.75-5.16602-3.1665-3.83398 7.833z"/></g><g id="g39" transform="matrix(1.25,0,0,-1.25,217.0831,-18.84514)"><path id="path150" d="m9-216.9926-36.5-34.25-7 54.25 43.5-20z"/><path id="path152" d="m177-226.7426 5-25.5 26.5 8.5-3.75 15.5-27.75 1.5z"/><path id="path154" d="m205.75-184.2426-20.5-4.25-2 8.75 8.5 9.75 11.5-2.25 2.5-12z"/><path id="path156" d="m209.25-151.4926-11.91699-10.5835-6.83301 14.8335 3.5 1.25 4.75-7.75 6.75 3.75 3.75-1.5z"/><path id="path158" d="m301.25-159.2426 10.25-47.75 32 30.75-42.25 17z"/><path id="path160" d="m520.5-182.4926 4.5-23.5 27.25 7.75-3.25 14.25-28.5 1.5z"/><path id="path162" d="m550.75-139.2426-22.25-4.25-2 9.25 8.5 9.75 12.25-2 3.5-12.75z"/></g><g id="g48" fill="#242799" transform="matrix(1.25,0,0,-1.25,217.0831,-18.84514)"><path id="path164" d="m1.75-219.7426-25.25-22.75-5.75 38.75 31-16z"/><path id="path166" d="m204.25-231.7426-22.5 1.5 2.75-17.5 22 5.75-2.25 10.25z"/><path id="path168" d="m203.75-182.2426-14.75-3-2.5 0.25-0.75 5.5 5.5 5.75 9.75-2 2.75-6.5z"/><path id="path170" d="m336.25-178.7426-22.25-21.75-7.25 33.5 29.5-11.75z"/><path id="path172" d="m548-187.7426 2-6.25-21.25-8.5-4 16 23.25-1.25z"/><path id="path174" d="m547.5-136.2426-17.5-4-2 6.75s5.75 5.25 6.75 5.5 8.75-1.75 9.75-2 1.75-1.25 1.75-1.25l1.25-5z"/></g><g id="g56" fill="#fff" transform="matrix(1.25,0,0,-1.25,217.0831,-18.84514)"><path id="path176" d="m-6.25-224.2426-15-13.25-3 20.5 18-7.25z"/><path id="path178" d="m203.5-240.9926-16.25-4.75-2.25 9 17.5-0.75 1-3.5z"/><path id="path180" d="m201-181.9926-13.25-2.25-1.25 4.25 2 1.75 12-1.5 0.5-2.25z"/><path id="path182" d="m327.75-182.9926-12.5-12-4.5 19.5 17-7.5z"/><path id="path184" d="m530.5-199.7426-1.5 7.5 18-1v-1l-16.5-5.5z"/><path id="path186" d="m545-134.9926-13.5-3.75-1.25 5.75 14.75-2z"/></g><path id="path188" d="m908.7494 113.75-16.25 14.58313-9.16626-19.16688 5.3125-2.70812 5.3125 11.45812 9.375-6.66625 5.41626 2.5z" fill-opacity="0.84999" fill="#14080d"/></g><g id="g65" transform="matrix(1.25,0,0,-1.25,217.0831,-18.84514)"><path id="path190" d="m598.0508-84.98919 0.0996-0.83789-2.37402-0.28223 0.7373-6.20605-0.96191-0.11426-0.73731 6.20605-2.37402-0.28174-0.0996 0.8379 5.70996 0.67822z"/><path id="path192" d="m598.9238-84.88568 1.35547 0.16114 2.72754-5.71582 1.30468 6.19482 1.34668 0.16016 0.83692-7.04395-0.90039-0.10693-0.67478 5.94482-1.31836-6.18164-0.94433-0.1123-2.7334 5.70019 0.73733-5.9375-0.90039-0.10693-0.83691 7.04394z"/><path id="path4508" d="m-6.25-224.2426-15-13.25-3 20.5 18-7.25z" fill-rule="evenodd" fill="#fff"/></g></svg>
